HIERARCHY
ROOT Hips
{
  OFFSET -331.093 83.8371 -317.828
  CHANNELS 6 Xposition Yposition Zposition Zrotation Xrotation Yrotation
  JOINT LeftUpLeg
  {
    OFFSET 8.64259 1.95398 -2.38835
    CHANNELS 3 Zrotation Xrotation Yrotation
    JOINT LeftLeg
    {
      OFFSET 43.7702 0 0
      CHANNELS 3 Zrotation Xrotation Yrotation
      JOINT LeftFoot
      {
        OFFSET 40.6238 0 0
        CHANNELS 3 Zrotation Xrotation Yrotation
        JOINT LeftToeBase
        {
          OFFSET 12.7242 0 0
          CHANNELS 3 Zrotation Xrotation Yrotation
          End Site
          {
            OFFSET 0 0 0
          }
        }
      }
    }
  }
  JOINT RightUpLeg
  {
    OFFSET -8.2249 1.95398 -2.59336
    CHANNELS 3 Zrotation Xrotation Yrotation
    JOINT RightLeg
    {
      OFFSET 43.5653 0 0
      CHANNELS 3 Zrotation Xrotation Yrotation
      JOINT RightFoot
      {
        OFFSET 40.6238 0 0
        CHANNELS 3 Zrotation Xrotation Yrotation
        JOINT RightToeBase
        {
          OFFSET 12.7242 0 0
          CHANNELS 3 Zrotation Xrotation Yrotation
          End Site
          {
            OFFSET 0 0 0
          }
        }
      }
    }
  }
  JOINT Spine
  {
    OFFSET 0.165834 0.87714 6.61349
    CHANNELS 3 Zrotation Xrotation Yrotation
    JOINT Spine1
    {
      OFFSET 7.38963 1.71661e-005 0
      CHANNELS 3 Zrotation Xrotation Yrotation
      JOINT Spine2
      {
        OFFSET 11.9445 1.14441e-005 0
        CHANNELS 3 Zrotation Xrotation Yrotation
        JOINT Spine3
        {
          OFFSET 14.7254 4.19617e-005 0
          CHANNELS 3 Zrotation Xrotation Yrotation
          JOINT Spine4
          {
            OFFSET 10.9679 0 0
            CHANNELS 3 Zrotation Xrotation Yrotation
            JOINT RightShoulder
            {
              OFFSET 2.46616 -1.6653 3.69651
              CHANNELS 3 Zrotation Xrotation Yrotation
              JOINT RightArm
              {
                OFFSET 13.0012 0 0
                CHANNELS 3 Zrotation Xrotation Yrotation
                JOINT RightForeArm
                {
                  OFFSET 28.7848 1.62311e-005 0
                  CHANNELS 3 Zrotation Xrotation Yrotation
                  JOINT RightHand
                  {
                    OFFSET 26.5688 1.62095e-005 0
                    CHANNELS 3 Zrotation Xrotation Yrotation
                    End Site
                    {
                      OFFSET 0 0 0
                    }
                  }
                }
              }
            }
            JOINT LeftShoulder
            {
              OFFSET 2.38034 -1.29275 -3.7523
              CHANNELS 3 Zrotation Xrotation Yrotation
              JOINT LeftArm
              {
                OFFSET 16.3182 6.07031e-005 0
                CHANNELS 3 Zrotation Xrotation Yrotation
                JOINT LeftForeArm
                {
                  OFFSET 27.0901 0 0
                  CHANNELS 3 Zrotation Xrotation Yrotation
                  JOINT LeftHand
                  {
                    OFFSET 24.5451 1.51738e-005 0
                    CHANNELS 3 Zrotation Xrotation Yrotation
                    End Site
                    {
                      OFFSET 0 0 0
                    }
                  }
                }
              }
            }
            JOINT Neck
            {
              OFFSET 5.0226 -0.0266342 0
              CHANNELS 3 Zrotation Xrotation Yrotation
              JOINT Head
              {
                OFFSET 6.69364 2.86102e-005 0
                CHANNELS 3 Zrotation Xrotation Yrotation
                End Site
                {
                  OFFSET 0 0 0
                }
              }
            }
          }
        }
      }
    }
  }
}
MOTION
Frames:	15
Frame Time:	0.0416667
-78.0108 62.4341 1.80813 46.6377 -77.7727 47.4261 -176.031 44.0442 101.503 -112.398 29.3793 3.80122 56.0307 -0.233596 6.75377 49.7703 56.6077 50.8173 123.951 71.8058 144.493 -103.393 15.5365 -0.641162 87.4327 -13.2492 -6.13138 35.6036 -0.429132 -1.72758 1.22344 10.7891 -91.0677 5.30916 2.00195 -2.13794 -6.36213 1.90594 -2.22395 -28.9023 2.55186 -1.4374 -8.88963 2.55185 -1.43741 90.2633 -30.2997 -105.752 8.45555 -6.9699 -22.7581 -6.93287 -10.0192 -45.2253 -19.5871 -1.07326 1.14884 -95.2327 -42.04 68.8954 -29.0994 13.1936 23.2746 6.19145 10.3367 -41.5952 16.7535 1.02827 2.26441 -7.67422 -11.5482 1.15498 29.7626 -12.1418 -2.65945 
-78.1827 60.1233 1.03778 49.8099 -79.5468 51.3352 -177.949 43.3372 103.51 -116.086 31.005 3.92253 56.8604 0.604445 7.44737 56.0176 63.0466 47.5611 117.738 71.0075 151.097 -106.199 15.922 -1.06129 87.2886 -13.5422 -6.33084 36.185 -0.311548 -0.994155 1.37608 10.9785 -91.12 4.93314 2.28902 -2.2336 -6.73789 2.18852 -2.33216 -29.2816 2.85438 -1.44228 -9.26899 2.85437 -1.44229 90.1951 -30.3797 -105.855 7.03994 -7.8836 -22.7653 -7.85135 -11.5506 -45.1532 -21.0321 -1.31131 2.09521 -95.2259 -42.1245 68.9358 -29.6267 13.6639 23.6594 6.61959 10.9174 -41.978 17.6184 1.17493 2.79943 -7.57286 -11.5646 1.64957 29.6492 -12.3985 -3.39458 
-78.5569 57.9346 0.113528 57.5584 -80.8463 60.0628 178.57 43.2315 106.614 -119.886 31.835 3.93462 57.2553 0.402835 6.29239 63.303 65.0618 40.1545 112.393 69.5558 156.72 -108.478 16.9837 -1.47374 87.0859 -13.6427 -6.49728 36.203 -0.0351474 0.516201 1.51851 11.21 -91.2289 4.47358 2.53357 -2.43382 -7.19739 2.42403 -2.54295 -29.7435 3.14775 -1.5597 -9.73085 3.14776 -1.55968 90.0731 -30.511 -106.044 5.51912 -8.28703 -22.0242 -8.99597 -12.876 -45.8903 -22.9117 -1.93105 4.7853 -95.0906 -41.9651 69.0959 -30.1193 14.3488 23.9432 7.07578 11.4737 -42.3323 17.7507 1.20687 2.93235 -7.0825 -11.7989 1.46528 29.7729 -12.5974 -3.34069 
-78.812 55.8437 -0.67395 63.989 -81.6703 67.2937 176.101 43.4518 108.962 -123.245 33.1041 3.79124 57.2477 0.87354 7.50341 62.1711 64.722 41.2481 106.571 68.2893 162.799 -110.66 17.9942 -1.89379 86.7344 -13.7057 -6.65759 35.9086 0.0699543 1.05566 1.63946 11.3869 -91.3108 4.12222 2.74576 -2.58172 -7.54863 2.62952 -2.70002 -30.0972 3.39456 -1.6369 -10.0846 3.39456 -1.6369 89.7777 -30.3503 -106.681 4.32802 -8.59139 -20.8369 -9.03756 -12.4811 -46.2586 -24.2909 -1.78046 3.43622 -95.2052 -42.3898 69.0614 -29.85 14.3426 23.9564 6.98245 11.6563 -42.1116 19.0819 1.37857 3.37546 -6.90286 -12.043 2.24065 29.7123 -13.2416 -4.57924 
-79.0324 54.0121 -1.38484 72.7563 -82.5658 76.5192 174.07 43.4179 110.91 -126.143 33.9443 3.58827 56.989 0.55852 7.34232 54.5596 63.8834 50.0599 102.616 67.1965 166.997 -112.643 17.5049 -2.2746 86.6349 -13.843 -6.76675 34.1261 -0.220215 -0.755998 1.79062 11.5714 -91.3239 3.75627 3.04642 -2.59259 -7.91396 2.92941 -2.72414 -30.4687 3.68456 -1.55665 -10.4561 3.68456 -1.55666 90.0084 -30.0272 -106.354 4.15003 -8.94129 -20.3011 -9.15741 -12.9113 -46.3018 -25.5038 -2.03042 4.23426 -95.0414 -42.0672 69.2096 -29.8621 14.2503 24.1015 6.46403 10.9446 -41.9955 18.896 1.42483 3.68739 -7.25128 -12.2498 1.50213 30.3107 -13.2955 -4.20431 
-79.295 52.3859 -2.00835 80.2703 -82.7575 84.5965 171.084 43.469 112.842 -128.506 34.5305 3.33513 56.322 -0.516045 6.28047 55.9083 65.7482 49.7725 98.7958 66.1918 171.16 -113.985 18.5007 -2.63998 85.711 -13.6014 -6.81665 34.8424 -0.129415 -0.136655 1.85117 11.7109 -91.3593 3.47846 3.15631 -2.64919 -8.19162 3.0367 -2.78552 -30.7482 3.80637 -1.57754 -10.7356 3.80637 -1.57754 89.9654 -29.5404 -106.628 4.21217 -9.18261 -19.6802 -9.58658 -13.6515 -45.9411 -28.0903 -2.30859 4.51053 -95.1171 -42.2369 69.1482 -29.735 13.9777 24.258 6.28919 11.077 -41.5093 18.9011 1.45713 3.85686 -7.64263 -12.2853 1.35322 31.149 -13.3593 -4.25358 
-79.5746 50.9703 -2.55245 84.7589 -82.553 89.4757 167.653 43.5328 114.882 -130.547 36.2285 3.05288 55.9585 -1.56904 5.13695 61.1042 65.919 43.5062 95.4423 65.3724 175.21 -115.261 19.3488 -2.92507 85.5435 -13.6173 -6.96106 33.4959 -0.337896 -1.59575 1.88624 11.8399 -91.3814 3.22135 3.22031 -2.67981 -8.44866 3.0993 -2.81894 -31.0064 3.8766 -1.58746 -10.9937 3.87661 -1.58745 90.0814 -29.3819 -106.46 4.08014 -8.78947 -19.567 -9.92006 -14.2085 -46.2699 -28.7357 -2.43905 4.84532 -94.963 -42.0816 69.3396 -29.8884 13.9555 24.29 6.27477 11.1907 -41.3242 18.6906 1.43349 3.8142 -7.44721 -12.5085 1.79051 31.2272 -13.9382 -5.37638 
-79.747 49.7619 -3.0647 88.4943 -82.2798 93.5923 164.513 43.6915 116.565 -132.199 36.8468 2.77297 55.7239 -2.31916 4.06373 53.0531 66.7812 54.1112 91.9854 64.6733 178.852 -116.274 20.0312 -3.23858 84.7114 -13.3951 -6.99734 33.6232 -0.15829 -0.456318 1.91179 11.9306 -91.4231 3.04048 3.25686 -2.75242 -8.62959 3.13262 -2.89307 -31.1874 3.93327 -1.64574 -11.1747 3.93327 -1.64574 90.15 -29.129 -106.422 4.15162 -8.86593 -18.8827 -9.91787 -14.0023 -46.7229 -30.0592 -2.50059 4.63066 -95.1127 -42.2637 69.1645 -29.8539 13.6693 24.6866 5.87795 10.7796 -41.1525 19.0099 1.45483 3.80146 -7.70851 -12.5776 1.52521 31.9368 -13.9535 -5.16911 
-79.8312 48.6646 -3.48627 91.1441 -82.1566 96.5142 161.997 43.8853 118 -133.76 38.5259 2.48739 55.6996 -2.36611 4.70931 49.5858 66.1894 58.1056 88.6044 63.9562 -177.672 -117.386 20.5 -3.46643 83.884 -13.1458 -7.03699 33.8495 -0.12028 -0.194856 1.93706 12.0319 -91.4276 2.83824 3.30774 -2.75094 -8.83173 3.18351 -2.89384 -31.3907 3.98134 -1.62898 -11.378 3.98134 -1.62898 90.3787 -28.8523 -106.074 4.4457 -8.89146 -18.6692 -9.69226 -13.3837 -47.177 -30.0937 -2.52074 4.69246 -94.8019 -42.1428 69.6175 -29.9872 13.0345 24.9157 5.97302 10.8107 -41.0861 19.1949 1.47521 3.83627 -7.25628 -12.5873 1.52201 32.1935 -14.0439 -5.41939 
-79.9146 47.7216 -3.77463 95.0645 -82.2495 100.709 158.477 43.2566 120.424 -134.884 39.8881 2.19085 56.997 -3.70536 0.582084 47.9993 65.5824 59.7532 87.3631 62.991 -176.438 -117.892 20.9769 -3.75373 83.8402 -13.0881 -7.07223 32.8761 -0.0589513 0.0838996 1.98535 12.1257 -91.4305 2.6514 3.40506 -2.74623 -9.0183 3.28095 -2.89342 -31.5796 4.07275 -1.59511 -11.567 4.07275 -1.59511 90.406 -28.7131 -106.073 4.57797 -9.37493 -18.2581 -9.6489 -12.8682 -47.4357 -32.1035 -2.70632 4.73244 -94.9624 -42.2033 69.3827 -29.8595 12.5029 25.3796 5.90858 10.8537 -40.7621 19.1881 1.49744 3.95499 -7.55397 -12.754 1.19976 32.975 -14.2045 -5.38853 
-79.938 46.8221 -4.0434 98.5503 -81.9624 104.416 156.329 43.2046 121.455 -135.811 43.7492 2.00119 54.3024 -5.79047 1.7341 49.0303 66.7816 59.2173 85.3253 62.3418 -174.399 -118.721 21.4045 -3.97361 83.0778 -12.8004 -7.0818 32.61 -0.0153369 0.339045 1.97424 12.2061 -91.4255 2.49017 3.38657 -2.72867 -9.17955 3.26326 -2.87507 -31.7406 4.04983 -1.58395 -11.728 4.04984 -1.58395 90.3835 -28.8677 -106.058 4.69493 -9.74741 -17.4469 -9.86561 -12.6366 -48.996 -34.0986 -2.95179 4.97198 -94.663 -41.9584 69.7762 -30.1021 12.3694 25.9098 5.59658 10.5043 -40.6401 19.4894 1.56216 4.1721 -7.21632 -12.5921 1.37008 32.5883 -14.2187 -5.97777 
-80.0799 46.1188 -4.22909 101.443 -81.8456 107.701 153.909 42.6133 123.13 -136.776 44.0137 1.73225 55.6374 -5.79284 0.126859 44.7779 63.9631 62.9736 84.2619 61.7033 -172.747 -119.283 21.8813 -4.09662 82.4662 -12.8385 -7.16359 33.1242 -0.161141 -0.540053 1.95802 12.2867 -91.4309 2.32846 3.35377 -2.73171 -9.34133 3.23033 -2.87667 -31.9016 4.01946 -1.59674 -11.889 4.01946 -1.59675 90.5149 -28.7007 -105.86 5.52124 -9.69178 -16.7111 -11.5119 -12.7915 -50.9425 -35.2707 -3.21357 5.50319 -94.5598 -41.7988 69.8869 -30.1335 11.774 26.2235 5.15495 10.3258 -39.8602 19.3642 1.38509 3.30473 -7.06992 -12.4303 1.02568 32.9462 -13.9914 -5.79659 
-80.0829 45.5511 -4.55435 101.519 -81.4173 107.646 153.633 44.1284 123.296 -137.431 45.8223 1.67577 51.3029 -7.62552 3.51994 50.8812 67.1524 57.1082 82.1814 61.8318 -170.379 -119.733 22.422 -4.17863 81.6767 -12.5858 -7.16156 33.3395 -0.357284 -1.75286 1.90157 12.3572 -91.3885 2.18559 3.259 -2.64399 -9.48426 3.13952 -2.78486 -32.0432 3.90273 -1.54161 -12.0306 3.90273 -1.5416 90.5839 -28.6665 -105.735 5.72647 -9.56553 -16.1241 -12.5668 -13.0995 -51.9412 -36.2966 -3.24501 5.2992 -94.5462 -41.6645 69.8629 -29.7988 11.7472 26.0962 4.50833 9.59666 -39.3533 18.719 1.27975 2.98079 -6.93695 -12.3846 0.703194 33.1744 -13.9882 -5.99917 
-80.1285 45.2062 -4.76027 102.377 -80.6529 108.302 152.45 44.3088 123.499 -137.802 46.5186 1.57122 50.9729 -8.11082 3.34682 48.977 68.2833 60.2706 81.007 62.1232 -169.153 -120.017 23.0375 -4.29246 81.1488 -12.3276 -7.13964 33.4499 -0.440309 -2.24486 1.81496 12.4364 -91.3538 2.025 3.10105 -2.572 -9.64507 2.9849 -2.70598 -32.2012 3.73047 -1.52054 -12.1886 3.73049 -1.52053 90.6829 -28.476 -105.608 5.95556 -9.60554 -15.8954 -12.7595 -13.0088 -52.6344 -36.2772 -3.22381 5.23621 -94.507 -41.6975 69.9369 -29.3538 11.8649 26.0296 4.55204 9.59239 -39.4032 18.3734 1.16387 2.47455 -7.04806 -12.2157 0.587233 33.1468 -13.8719 -6.19442 
-80.1869 44.8901 -4.95604 103.198 -80.0257 109.221 151.228 44.3245 124.104 -138.155 46.9903 1.46583 50.7367 -8.40952 3.36011 49.391 69.609 60.6064 80.1649 62.1683 -168.275 -120.206 23.502 -4.38796 80.6669 -12.1589 -7.10558 33.5315 -0.466185 -2.3881 1.80263 12.4682 -91.365 1.96143 3.07273 -2.59167 -9.70876 2.95574 -2.72438 -32.2641 3.70938 -1.54785 -12.2514 3.70939 -1.54785 90.8526 -28.5421 -105.241 5.69831 -10.0635 -15.7303 -12.2413 -12.7132 -53.0988 -36.386 -3.32225 5.51001 -94.276 -41.2596 70.1596 -29.5096 12.338 26.2233 4.03217 8.56603 -39.8164 18.8755 1.17833 2.38673 -7.76304 -12.2895 -0.349403 33.5974 -13.7758 -5.81501 
